<svg width="181" height="13" viewBox="0 0 181 13" fill="none" xmlns="http://www.w3.org/2000/svg">
<line y1="6.5" x2="81" y2="6.5" stroke="black"/>
<line x1="100" y1="6.5" x2="181" y2="6.5" stroke="black"/>
<path d="M90.4925 10.668C91.2045 10.668 91.7965 10.348 92.2685 9.708C92.7405 9.068 92.9765 8.328 92.9765 7.488C92.9765 6.64 92.7405 5.904 92.2685 5.28C91.8045 4.648 91.2125 4.332 90.4925 4.332C89.7805 4.332 89.1885 4.648 88.7165 5.28C88.2525 5.904 88.0205 6.64 88.0205 7.488C88.0205 8.328 88.2565 9.068 88.7285 9.708C89.2005 10.348 89.7885 10.668 90.4925 10.668ZM90.5045 2.82C91.6965 2.82 92.6885 3.276 93.4805 4.188C94.2805 5.092 94.6805 6.196 94.6805 7.5C94.6805 8.796 94.2805 9.9 93.4805 10.812C92.6805 11.724 91.6845 12.18 90.4925 12.18C89.3085 12.18 88.3165 11.724 87.5165 10.812C86.7165 9.9 86.3165 8.796 86.3165 7.5C86.3165 6.196 86.7165 5.092 87.5165 4.188C88.3245 3.276 89.3205 2.82 90.5045 2.82ZM91.8725 0.852C91.8725 1.244 91.6645 1.616 91.2485 1.968C90.8325 2.32 90.4805 2.496 90.1925 2.496C90.0085 2.496 89.8645 2.448 89.7605 2.352C89.6565 2.248 89.6045 2.128 89.6045 1.992C89.6045 1.856 89.6845 1.668 89.8445 1.428C90.0125 1.18 90.1045 1.04 90.1205 1.008C90.1445 0.967999 90.1845 0.883999 90.2405 0.756C90.2965 0.619999 90.3405 0.523999 90.3725 0.468C90.4125 0.404 90.4645 0.332 90.5285 0.252C90.6645 0.0999997 90.8565 0.0239997 91.1045 0.0239997C91.3605 0.0239997 91.5525 0.112 91.6805 0.287999C91.8085 0.455999 91.8725 0.644 91.8725 0.852Z" fill="black"/>
</svg>
