<svg width="23" height="23" viewBox="0 0 23 23" fill="none" xmlns="http://www.w3.org/2000/svg">
<path d="M11.5 1.4375C5.94316 1.4375 1.4375 5.94316 1.4375 11.5C1.4375 17.0568 5.94316 21.5625 11.5 21.5625C17.0568 21.5625 21.5625 17.0568 21.5625 11.5C21.5625 5.94316 17.0568 1.4375 11.5 1.4375ZM15.251 15.6687C14.3391 16.5088 13.0947 17.0029 11.6101 17.0029C9.46055 17.0029 7.60078 15.7698 6.69561 13.9729C6.32275 13.2295 6.10938 12.3895 6.10938 11.5C6.10938 10.6105 6.32275 9.77051 6.69561 9.02705C7.60078 7.22793 9.46055 5.99482 11.6101 5.99482C13.0925 5.99482 14.3368 6.54063 15.2914 7.42783L13.7146 9.00684C13.1441 8.46104 12.4187 8.18477 11.6123 8.18477C10.1793 8.18477 8.96641 9.15283 8.53291 10.4533C8.42285 10.7835 8.35996 11.1361 8.35996 11.5C8.35996 11.8639 8.42285 12.2165 8.53291 12.5467C8.96641 13.8472 10.1793 14.8152 11.6101 14.8152C12.3513 14.8152 12.9802 14.6198 13.4721 14.2896C14.0561 13.8988 14.4424 13.3171 14.5704 12.6275H11.6101V10.4982H16.7918C16.8569 10.8599 16.8906 11.235 16.8906 11.6235C16.8906 13.3014 16.2909 14.7097 15.251 15.6687Z" fill="#F2E4D8"/>
</svg>
