<svg width="39" height="40" viewBox="0 0 39 40" fill="none" xmlns="http://www.w3.org/2000/svg">
<path d="M22.55 7.875C22.55 7.71284 22.518 7.55261 22.4562 7.40529C22.3945 7.25797 22.3045 7.12704 22.1923 7.02147C22.0802 6.91591 21.9485 6.8382 21.8065 6.79367C21.6644 6.74914 21.5153 6.73885 21.3692 6.7635L7.01922 9.171C6.77729 9.21184 6.55666 9.34635 6.39723 9.55022C6.23781 9.75408 6.15012 10.0138 6.15002 10.2825V34.7175C6.15012 34.9862 6.23781 35.2459 6.39723 35.4498C6.55666 35.6537 6.77729 35.7882 7.01922 35.829L21.3692 38.2388C21.5153 38.2634 21.6644 38.2531 21.8065 38.2086C21.9485 38.1641 22.0802 38.0863 22.1923 37.9808C22.3045 37.8752 22.3945 37.7443 22.4562 37.597C22.518 37.4496 22.55 37.2894 22.55 37.1273V22.5H33.1526L31.1088 24.4665C30.9164 24.6664 30.802 24.9402 30.7895 25.2307C30.7771 25.5211 30.8676 25.8055 31.042 26.0243C31.2165 26.2431 31.4613 26.3793 31.7252 26.4043C31.9891 26.4294 32.2516 26.3413 32.4577 26.1585L36.5495 22.221C36.6592 22.1154 36.7472 21.9853 36.8074 21.8394C36.8677 21.6935 36.8988 21.5352 36.8988 21.375C36.8988 21.2148 36.8677 21.0565 36.8074 20.9106C36.7472 20.7647 36.6592 20.6346 36.5495 20.529L32.4577 16.5915C32.2532 16.3952 31.9861 16.296 31.7151 16.3159C31.4441 16.3357 31.1913 16.4729 31.0124 16.6973C30.8335 16.9216 30.7432 17.2148 30.7613 17.5123C30.7793 17.8098 30.9043 18.0872 31.1088 18.2835L33.1526 20.25H22.55V7.875ZM17.425 25.3125C17.0173 25.3125 16.6262 25.1347 16.3378 24.8182C16.0495 24.5018 15.8875 24.0726 15.8875 23.625C15.8875 23.1774 16.0495 22.7482 16.3378 22.4318C16.6262 22.1153 17.0173 21.9375 17.425 21.9375C17.8328 21.9375 18.2239 22.1153 18.5122 22.4318C18.8005 22.7482 18.9625 23.1774 18.9625 23.625C18.9625 24.0726 18.8005 24.5018 18.5122 24.8182C18.2239 25.1347 17.8328 25.3125 17.425 25.3125Z" fill="#F2E4D8"/>
<path d="M25.625 36H24.6V24.75H26.65V34.875C26.65 35.1734 26.542 35.4595 26.3498 35.6705C26.1575 35.8815 25.8968 36 25.625 36Z" fill="#F2E4D8"/>
<path d="M24.6 18V9H25.625C25.8968 9 26.1575 9.11853 26.3498 9.32951C26.542 9.54048 26.65 9.82663 26.65 10.125V18H24.6Z" fill="#F2E4D8"/>
</svg>
