<svg width="42" height="42" viewBox="0 0 42 42" fill="none" xmlns="http://www.w3.org/2000/svg">
<circle cx="21" cy="21" r="19.5" fill="#C4C4C4" stroke="#57977C" stroke-width="3"/>
<path fill-rule="evenodd" clip-rule="evenodd" d="M19.0007 11.0009C19.0009 10.7923 18.9359 10.589 18.8147 10.4192C18.6936 10.2494 18.5224 10.1218 18.3252 10.0541C18.1279 9.98643 17.9144 9.98214 17.7146 10.0418C17.5147 10.1015 17.3386 10.2221 17.2107 10.3869L10.2107 19.3869C10.0741 19.5624 10 19.7785 10 20.0009C10 20.2233 10.0741 20.4394 10.2107 20.6149L17.2107 29.6149C17.3386 29.7796 17.5147 29.9003 17.7146 29.96C17.9144 30.0197 18.1279 30.0154 18.3252 29.9477C18.5224 29.88 18.6936 29.7524 18.8147 29.5826C18.9359 29.4128 19.0009 29.2094 19.0007 29.0009V25.0109C24.3797 25.1229 26.9637 26.1439 28.2617 27.2539C29.4957 28.3089 29.7217 29.5499 29.9567 30.8499L30.0177 31.1849C30.0626 31.4246 30.1935 31.6397 30.3858 31.7896C30.5782 31.9395 30.8187 32.014 31.0621 31.999C31.3055 31.984 31.535 31.8806 31.7075 31.7082C31.88 31.5358 31.9836 31.3063 31.9987 31.0629C32.1697 28.3149 31.9127 24.3329 29.9717 21.0019C28.0877 17.7689 24.6947 15.2829 19.0007 15.0229V11.0009Z" fill="#57977C"/>
</svg>
