<svg width="33" height="33" viewBox="0 0 33 33" fill="none" xmlns="http://www.w3.org/2000/svg">
<path d="M16.5 2.75V11C16.5 11.7293 16.7897 12.4288 17.3055 12.9445C17.8212 13.4603 18.5207 13.75 19.25 13.75H26.015C25.1955 14.0525 24.442 14.5118 23.8728 15.0838L15.554 23.4603C15.0703 23.9473 14.7248 24.5543 14.553 25.2189L13.8311 28.0101C13.7312 28.3864 13.709 28.7791 13.766 29.1642C13.8229 29.5493 13.9579 29.9188 14.1625 30.25H7.5625C7.01549 30.25 6.49089 30.0327 6.10409 29.6459C5.7173 29.2591 5.5 28.7345 5.5 28.1875V4.8125C5.5 4.26549 5.7173 3.74089 6.10409 3.35409C6.49089 2.9673 7.01549 2.75 7.5625 2.75H16.5Z" fill="#F2E4D8"/>
<path d="M18.5625 3.4375V11C18.5625 11.1823 18.6349 11.3572 18.7639 11.4861C18.8928 11.6151 19.0677 11.6875 19.25 11.6875H26.8125L18.5625 3.4375Z" fill="#F2E4D8"/>
<path d="M16.7696 24.1615L24.8848 16.0462C25.4741 15.4567 26.2735 15.1255 27.107 15.1254C27.9405 15.1252 28.74 15.4562 29.3295 16.0455C29.919 16.6349 30.2502 17.4342 30.2504 18.2677C30.2505 19.1013 29.9195 19.9007 29.3302 20.4902L21.2136 28.6055C20.7407 29.079 20.148 29.415 19.4989 29.5776L16.9813 30.206C16.731 30.2685 16.4687 30.2652 16.22 30.1963C15.9713 30.1273 15.7447 29.9952 15.5623 29.8128C15.3798 29.6303 15.2477 29.4037 15.1788 29.155C15.1099 28.9064 15.1065 28.6441 15.1691 28.3937L15.7974 25.8775C15.9597 25.2271 16.2952 24.6345 16.7696 24.1615V24.1615Z" fill="#F2E4D8"/>
</svg>
