<svg width="33" height="33" viewBox="0 0 33 33" fill="none" xmlns="http://www.w3.org/2000/svg">
<path fill-rule="evenodd" clip-rule="evenodd" d="M16.5 31.3499C24.7013 31.3499 31.35 24.7013 31.35 16.5C31.35 8.29866 24.7013 1.65 16.5 1.65C8.29867 1.65 1.65 8.29866 1.65 16.5C1.65 24.7013 8.29867 31.3499 16.5 31.3499ZM16.5 32.9999C25.6129 32.9999 33 25.6129 33 16.5C33 7.38704 25.6129 0 16.5 0C7.38705 0 0 7.38704 0 16.5C0 25.6129 7.38705 32.9999 16.5 32.9999Z" fill="#F2E4D8"/>
<path d="M6.59998 26.0947C6.59998 25.2424 7.23688 24.5222 8.08498 24.4282C14.4499 23.7236 18.579 23.7871 24.9298 24.4438C25.247 24.4771 25.5475 24.6021 25.7948 24.8034C26.0421 25.0047 26.2255 25.2737 26.3224 25.5775C26.4194 25.8813 26.4257 26.2067 26.3408 26.5141C26.2558 26.8214 26.0832 27.0974 25.8439 27.3082C18.3488 33.8414 14.0654 33.7515 7.12798 27.3148C6.78973 27.0013 6.59998 26.5558 6.59998 26.0955V26.0947Z" fill="#F2E4D8"/>
<path fill-rule="evenodd" clip-rule="evenodd" d="M24.8449 25.2639C18.5444 24.6122 14.4747 24.5511 8.17495 25.2482C7.7509 25.2953 7.42503 25.6574 7.42503 26.0955C7.42503 26.3315 7.5232 26.555 7.68903 26.7101C11.1276 29.8996 13.733 31.3409 16.2798 31.3499C18.8356 31.359 21.5812 29.9293 25.302 26.687C25.4202 26.5818 25.5053 26.4446 25.5469 26.2919C25.5885 26.1392 25.5849 25.9777 25.5365 25.8271C25.4881 25.6764 25.397 25.5431 25.2742 25.4433C25.1514 25.3434 25.0023 25.2814 24.8449 25.2647V25.2639ZM7.99428 23.6082C14.426 22.8962 18.6153 22.9605 25.0157 23.623C25.4928 23.6728 25.945 23.8606 26.317 24.1635C26.689 24.4663 26.9646 24.8711 27.1101 25.3282C27.2556 25.7853 27.2647 26.2749 27.1362 26.737C27.0078 27.1992 26.7473 27.6139 26.3868 27.9303C22.6125 31.2204 19.4692 33.0123 16.2748 32.9999C13.0713 32.9884 10.0667 31.166 6.56785 27.9196C6.31735 27.6863 6.11765 27.4038 5.98123 27.0898C5.84482 26.7758 5.77462 26.437 5.77503 26.0947C5.77383 25.4796 5.9996 24.8857 6.40909 24.4267C6.81859 23.9677 7.38303 23.676 7.99428 23.6073V23.6082Z" fill="#F2E4D8"/>
<path d="M23.1 13.2C23.1 14.9504 22.4047 16.6291 21.1669 17.8669C19.9292 19.1046 18.2505 19.8 16.5 19.8C14.7496 19.8 13.0709 19.1046 11.8331 17.8669C10.5954 16.6291 9.90002 14.9504 9.90002 13.2C9.90002 11.4495 10.5954 9.7708 11.8331 8.53307C13.0709 7.29533 14.7496 6.59998 16.5 6.59998C18.2505 6.59998 19.9292 7.29533 21.1669 8.53307C22.4047 9.7708 23.1 11.4495 23.1 13.2V13.2Z" fill="#F2E4D8"/>
<path fill-rule="evenodd" clip-rule="evenodd" d="M16.5 18.15C17.8128 18.15 19.0719 17.6284 20.0002 16.7001C20.9285 15.7718 21.45 14.5128 21.45 13.2C21.45 11.8871 20.9285 10.6281 20.0002 9.69979C19.0719 8.77149 17.8128 8.24997 16.5 8.24997C15.1872 8.24997 13.9282 8.77149 12.9998 9.69979C12.0715 10.6281 11.55 11.8871 11.55 13.2C11.55 14.5128 12.0715 15.7718 12.9998 16.7001C13.9282 17.6284 15.1872 18.15 16.5 18.15V18.15ZM16.5 19.8C18.2505 19.8 19.9292 19.1046 21.1669 17.8669C22.4047 16.6291 23.1 14.9504 23.1 13.2C23.1 11.4495 22.4047 9.7708 21.1669 8.53307C19.9292 7.29533 18.2505 6.59998 16.5 6.59998C14.7496 6.59998 13.0709 7.29533 11.8331 8.53307C10.5954 9.7708 9.90002 11.4495 9.90002 13.2C9.90002 14.9504 10.5954 16.6291 11.8331 17.8669C13.0709 19.1046 14.7496 19.8 16.5 19.8V19.8Z" fill="#F2E4D8"/>
</svg>
